<?xml version="1.0" encoding="UTF-8" standalone="no"?><svg xmlns="http://www.w3.org/2000/svg" xmlns:xlink="http://www.w3.org/1999/xlink" contentScriptType="application/ecmascript" contentStyleType="text/css" height="1265.6px" preserveAspectRatio="none" style="width:3732px;height:1265px;" version="1.1" viewBox="0 0 3732 1265" width="3732.8001px" zoomAndPan="magnify"><defs><filter height="300%" id="fmfgxlr" width="300%" x="-1" y="-1"><feGaussianBlur result="blurOut" stdDeviation="3.200000047683716"/><feColorMatrix in="blurOut" result="blurOut2" type="matrix" values="0 0 0 0 0 0 0 0 0 0 0 0 0 0 0 0 0 0 .4 0"/><feOffset dx="6.400000095367432" dy="6.400000095367432" in="blurOut2" result="blurOut3"/><feBlend in="SourceGraphic" in2="blurOut3" mode="normal"/></filter></defs><g><rect fill="#ADD8E6" height="1258.2875" style="stroke: #A80036; stroke-width: 1.600000023841858;" width="833.6" x="6.4" y="6.4"/><text fill="#000000" font-family="sans-serif" font-size="20.8" font-weight="bold" lengthAdjust="spacingAndGlyphs" textLength="140.8" x="352.8" y="26.5094">Main Process</text><rect fill="#90EE90" height="1258.2875" style="stroke: #A80036; stroke-width: 1.600000023841858;" width="2872" x="843.2" y="6.4"/><text fill="#000000" font-family="sans-serif" font-size="20.8" font-weight="bold" lengthAdjust="spacingAndGlyphs" textLength="156.8" x="2200.8" y="26.5094">Server Process</text><line style="stroke: #A80036; stroke-width: 1.600000023841858; stroke-dasharray: 5.0,5.0;" x1="102.4" x2="102.4" y1="94.0781" y2="1203.1063"/><line style="stroke: #A80036; stroke-width: 1.600000023841858; stroke-dasharray: 5.0,5.0;" x1="284.8" x2="284.8" y1="94.0781" y2="1203.1063"/><line style="stroke: #A80036; stroke-width: 1.600000023841858; stroke-dasharray: 5.0,5.0;" x1="521.6" x2="521.6" y1="94.0781" y2="1203.1063"/><line style="stroke: #A80036; stroke-width: 1.600000023841858; stroke-dasharray: 5.0,5.0;" x1="752" x2="752" y1="94.0781" y2="1203.1063"/><line style="stroke: #A80036; stroke-width: 1.600000023841858; stroke-dasharray: 5.0,5.0;" x1="944" x2="944" y1="94.0781" y2="1203.1063"/><line style="stroke: #A80036; stroke-width: 1.600000023841858; stroke-dasharray: 5.0,5.0;" x1="1153.6" x2="1153.6" y1="94.0781" y2="1203.1063"/><line style="stroke: #A80036; stroke-width: 1.600000023841858; stroke-dasharray: 5.0,5.0;" x1="1420.8" x2="1420.8" y1="94.0781" y2="1203.1063"/><line style="stroke: #A80036; stroke-width: 1.600000023841858; stroke-dasharray: 5.0,5.0;" x1="1723.2" x2="1723.2" y1="94.0781" y2="1203.1063"/><line style="stroke: #A80036; stroke-width: 1.600000023841858; stroke-dasharray: 5.0,5.0;" x1="2019.2" x2="2019.2" y1="94.0781" y2="1203.1063"/><line style="stroke: #A80036; stroke-width: 1.600000023841858; stroke-dasharray: 5.0,5.0;" x1="2312" x2="2312" y1="94.0781" y2="1203.1063"/><line style="stroke: #A80036; stroke-width: 1.600000023841858; stroke-dasharray: 5.0,5.0;" x1="2550.4" x2="2550.4" y1="94.0781" y2="1203.1063"/><line style="stroke: #A80036; stroke-width: 1.600000023841858; stroke-dasharray: 5.0,5.0;" x1="2728" x2="2728" y1="94.0781" y2="1203.1063"/><line style="stroke: #A80036; stroke-width: 1.600000023841858; stroke-dasharray: 5.0,5.0;" x1="2921.6" x2="2921.6" y1="94.0781" y2="1203.1063"/><line style="stroke: #A80036; stroke-width: 1.600000023841858; stroke-dasharray: 5.0,5.0;" x1="3216" x2="3216" y1="94.0781" y2="1203.1063"/><line style="stroke: #A80036; stroke-width: 1.600000023841858; stroke-dasharray: 5.0,5.0;" x1="3555.2001" x2="3555.2001" y1="94.0781" y2="1203.1063"/><rect fill="#FEFECE" filter="url(#fmfgxlr)" height="48.7813" style="stroke: #A80036; stroke-width: 2.400000035762787;" width="172.8" x="12.8" y="37.2969"/><text fill="#000000" font-family="sans-serif" font-size="22.4" lengthAdjust="spacingAndGlyphs" textLength="150.4" x="24" y="70.1531">SplashActivity</text><rect fill="#FEFECE" filter="url(#fmfgxlr)" height="48.7813" style="stroke: #A80036; stroke-width: 2.400000035762787;" width="172.8" x="12.8" y="1201.5063"/><text fill="#000000" font-family="sans-serif" font-size="22.4" lengthAdjust="spacingAndGlyphs" textLength="150.4" x="24" y="1234.3625">SplashActivity</text><rect fill="#FEFECE" filter="url(#fmfgxlr)" height="48.7813" style="stroke: #A80036; stroke-width: 2.400000035762787;" width="147.2" x="208" y="37.2969"/><text fill="#000000" font-family="sans-serif" font-size="22.4" lengthAdjust="spacingAndGlyphs" textLength="124.8" x="219.2" y="70.1531">VirtualCore</text><rect fill="#FEFECE" filter="url(#fmfgxlr)" height="48.7813" style="stroke: #A80036; stroke-width: 2.400000035762787;" width="147.2" x="208" y="1201.5063"/><text fill="#000000" font-family="sans-serif" font-size="22.4" lengthAdjust="spacingAndGlyphs" textLength="124.8" x="219.2" y="1234.3625">VirtualCore</text><rect fill="#FEFECE" filter="url(#fmfgxlr)" height="48.7813" style="stroke: #A80036; stroke-width: 2.400000035762787;" width="262.4" x="387.2" y="37.2969"/><text fill="#000000" font-family="sans-serif" font-size="22.4" lengthAdjust="spacingAndGlyphs" textLength="240" x="398.4" y="70.1531">ServiceManagerNative</text><rect fill="#FEFECE" filter="url(#fmfgxlr)" height="48.7813" style="stroke: #A80036; stroke-width: 2.400000035762787;" width="262.4" x="387.2" y="1201.5063"/><text fill="#000000" font-family="sans-serif" font-size="22.4" lengthAdjust="spacingAndGlyphs" textLength="240" x="398.4" y="1234.3625">ServiceManagerNative</text><rect fill="#FEFECE" filter="url(#fmfgxlr)" height="48.7813" style="stroke: #A80036; stroke-width: 2.400000035762787;" width="155.2" x="672" y="37.2969"/><text fill="#000000" font-family="sans-serif" font-size="22.4" lengthAdjust="spacingAndGlyphs" textLength="132.8" x="683.2" y="70.1531">ProviderCall</text><rect fill="#FEFECE" filter="url(#fmfgxlr)" height="48.7813" style="stroke: #A80036; stroke-width: 2.400000035762787;" width="155.2" x="672" y="1201.5063"/><text fill="#000000" font-family="sans-serif" font-size="22.4" lengthAdjust="spacingAndGlyphs" textLength="132.8" x="683.2" y="1234.3625">ProviderCall</text><rect fill="#FEFECE" filter="url(#fmfgxlr)" height="48.7813" style="stroke: #A80036; stroke-width: 2.400000035762787;" width="184" x="849.6" y="37.2969"/><text fill="#000000" font-family="sans-serif" font-size="22.4" lengthAdjust="spacingAndGlyphs" textLength="161.6" x="860.8" y="70.1531">BinderProvider</text><rect fill="#FEFECE" filter="url(#fmfgxlr)" height="48.7813" style="stroke: #A80036; stroke-width: 2.400000035762787;" width="184" x="849.6" y="1201.5063"/><text fill="#000000" font-family="sans-serif" font-size="22.4" lengthAdjust="spacingAndGlyphs" textLength="161.6" x="860.8" y="1234.3625">BinderProvider</text><rect fill="#FEFECE" filter="url(#fmfgxlr)" height="48.7813" style="stroke: #A80036; stroke-width: 2.400000035762787;" width="190.4" x="1056" y="37.2969"/><text fill="#000000" font-family="sans-serif" font-size="22.4" lengthAdjust="spacingAndGlyphs" textLength="168" x="1067.2" y="70.1531">DaemonService</text><rect fill="#FEFECE" filter="url(#fmfgxlr)" height="48.7813" style="stroke: #A80036; stroke-width: 2.400000035762787;" width="190.4" x="1056" y="1201.5063"/><text fill="#000000" font-family="sans-serif" font-size="22.4" lengthAdjust="spacingAndGlyphs" textLength="168" x="1067.2" y="1234.3625">DaemonService</text><rect fill="#FEFECE" filter="url(#fmfgxlr)" height="48.7813" style="stroke: #A80036; stroke-width: 2.400000035762787;" width="299.2" x="1268.8" y="37.2969"/><text fill="#000000" font-family="sans-serif" font-size="22.4" lengthAdjust="spacingAndGlyphs" textLength="276.8" x="1280" y="70.1531">VPackageManagerService</text><rect fill="#FEFECE" filter="url(#fmfgxlr)" height="48.7813" style="stroke: #A80036; stroke-width: 2.400000035762787;" width="299.2" x="1268.8" y="1201.5063"/><text fill="#000000" font-family="sans-serif" font-size="22.4" lengthAdjust="spacingAndGlyphs" textLength="276.8" x="1280" y="1234.3625">VPackageManagerService</text><rect fill="#FEFECE" filter="url(#fmfgxlr)" height="48.7813" style="stroke: #A80036; stroke-width: 2.400000035762787;" width="259.2" x="1590.4" y="37.2969"/><text fill="#000000" font-family="sans-serif" font-size="22.4" lengthAdjust="spacingAndGlyphs" textLength="236.8" x="1601.6" y="70.1531">VUserManagerService</text><rect fill="#FEFECE" filter="url(#fmfgxlr)" height="48.7813" style="stroke: #A80036; stroke-width: 2.400000035762787;" width="259.2" x="1590.4" y="1201.5063"/><text fill="#000000" font-family="sans-serif" font-size="22.4" lengthAdjust="spacingAndGlyphs" textLength="236.8" x="1601.6" y="1234.3625">VUserManagerService</text><rect fill="#FEFECE" filter="url(#fmfgxlr)" height="48.7813" style="stroke: #A80036; stroke-width: 2.400000035762787;" width="288" x="1872" y="37.2969"/><text fill="#000000" font-family="sans-serif" font-size="22.4" lengthAdjust="spacingAndGlyphs" textLength="265.6" x="1883.2" y="70.1531">VActivityManagerService</text><rect fill="#FEFECE" filter="url(#fmfgxlr)" height="48.7813" style="stroke: #A80036; stroke-width: 2.400000035762787;" width="288" x="1872" y="1201.5063"/><text fill="#000000" font-family="sans-serif" font-size="22.4" lengthAdjust="spacingAndGlyphs" textLength="265.6" x="1883.2" y="1234.3625">VActivityManagerService</text><rect fill="#FEFECE" filter="url(#fmfgxlr)" height="48.7813" style="stroke: #A80036; stroke-width: 2.400000035762787;" width="254.4" x="2182.4" y="37.2969"/><text fill="#000000" font-family="sans-serif" font-size="22.4" lengthAdjust="spacingAndGlyphs" textLength="232" x="2193.6" y="70.1531">VAppManagerService</text><rect fill="#FEFECE" filter="url(#fmfgxlr)" height="48.7813" style="stroke: #A80036; stroke-width: 2.400000035762787;" width="254.4" x="2182.4" y="1201.5063"/><text fill="#000000" font-family="sans-serif" font-size="22.4" lengthAdjust="spacingAndGlyphs" textLength="232" x="2193.6" y="1234.3625">VAppManagerService</text><rect fill="#FEFECE" filter="url(#fmfgxlr)" height="48.7813" style="stroke: #A80036; stroke-width: 2.400000035762787;" width="176" x="2459.2" y="37.2969"/><text fill="#000000" font-family="sans-serif" font-size="22.4" lengthAdjust="spacingAndGlyphs" textLength="153.6" x="2470.4" y="70.1531">VEnvironment</text><rect fill="#FEFECE" filter="url(#fmfgxlr)" height="48.7813" style="stroke: #A80036; stroke-width: 2.400000035762787;" width="176" x="2459.2" y="1201.5063"/><text fill="#000000" font-family="sans-serif" font-size="22.4" lengthAdjust="spacingAndGlyphs" textLength="153.6" x="2470.4" y="1234.3625">VEnvironment</text><rect fill="#FEFECE" filter="url(#fmfgxlr)" height="48.7813" style="stroke: #A80036; stroke-width: 2.400000035762787;" width="136" x="2657.6" y="37.2969"/><text fill="#000000" font-family="sans-serif" font-size="22.4" lengthAdjust="spacingAndGlyphs" textLength="113.6" x="2668.8" y="70.1531">UidSystem</text><rect fill="#FEFECE" filter="url(#fmfgxlr)" height="48.7813" style="stroke: #A80036; stroke-width: 2.400000035762787;" width="136" x="2657.6" y="1201.5063"/><text fill="#000000" font-family="sans-serif" font-size="22.4" lengthAdjust="spacingAndGlyphs" textLength="113.6" x="2668.8" y="1234.3625">UidSystem</text><rect fill="#FEFECE" filter="url(#fmfgxlr)" height="48.7813" style="stroke: #A80036; stroke-width: 2.400000035762787;" width="206.4" x="2816" y="37.2969"/><text fill="#000000" font-family="sans-serif" font-size="22.4" lengthAdjust="spacingAndGlyphs" textLength="184" x="2827.2" y="70.1531">BroadcastSystem</text><rect fill="#FEFECE" filter="url(#fmfgxlr)" height="48.7813" style="stroke: #A80036; stroke-width: 2.400000035762787;" width="206.4" x="2816" y="1201.5063"/><text fill="#000000" font-family="sans-serif" font-size="22.4" lengthAdjust="spacingAndGlyphs" textLength="184" x="2827.2" y="1234.3625">BroadcastSystem</text><rect fill="#FEFECE" filter="url(#fmfgxlr)" height="48.7813" style="stroke: #A80036; stroke-width: 2.400000035762787;" width="336" x="3044.8" y="37.2969"/><text fill="#000000" font-family="sans-serif" font-size="22.4" lengthAdjust="spacingAndGlyphs" textLength="313.6" x="3056" y="70.1531">VNotificationManagerService</text><rect fill="#FEFECE" filter="url(#fmfgxlr)" height="48.7813" style="stroke: #A80036; stroke-width: 2.400000035762787;" width="336" x="3044.8" y="1201.5063"/><text fill="#000000" font-family="sans-serif" font-size="22.4" lengthAdjust="spacingAndGlyphs" textLength="313.6" x="3056" y="1234.3625">VNotificationManagerService</text><rect fill="#FEFECE" filter="url(#fmfgxlr)" height="48.7813" style="stroke: #A80036; stroke-width: 2.400000035762787;" width="299.2" x="3403.2001" y="37.2969"/><text fill="#000000" font-family="sans-serif" font-size="22.4" lengthAdjust="spacingAndGlyphs" textLength="276.8" x="3414.4001" y="70.1531">VAccountManagerService</text><rect fill="#FEFECE" filter="url(#fmfgxlr)" height="48.7813" style="stroke: #A80036; stroke-width: 2.400000035762787;" width="299.2" x="3403.2001" y="1201.5063"/><text fill="#000000" font-family="sans-serif" font-size="22.4" lengthAdjust="spacingAndGlyphs" textLength="276.8" x="3414.4001" y="1234.3625">VAccountManagerService</text><polygon fill="#A80036" points="265.6,137.2781,281.6,143.6781,265.6,150.0781,272,143.6781" style="stroke: #A80036; stroke-width: 1.600000023841858;"/><line style="stroke: #A80036; stroke-width: 1.600000023841858;" x1="102.4" x2="275.2" y1="143.6781" y2="143.6781"/><text fill="#000000" font-family="sans-serif" font-size="20.8" lengthAdjust="spacingAndGlyphs" textLength="140.8" x="113.6" y="136.5875">waitForEngine</text><polygon fill="#A80036" points="502.4,184.175,518.4,190.575,502.4,196.975,508.8,190.575" style="stroke: #A80036; stroke-width: 1.600000023841858;"/><line style="stroke: #A80036; stroke-width: 1.600000023841858;" x1="284.8" x2="512" y1="190.575" y2="190.575"/><text fill="#000000" font-family="sans-serif" font-size="20.8" lengthAdjust="spacingAndGlyphs" textLength="198.4" x="296" y="183.4844">ensureServerStarted</text><polygon fill="#A80036" points="733.6,231.0719,749.6,237.4719,733.6,243.8719,740,237.4719" style="stroke: #A80036; stroke-width: 1.600000023841858;"/><line style="stroke: #A80036; stroke-width: 1.600000023841858;" x1="521.6" x2="743.2" y1="237.4719" y2="237.4719"/><text fill="#000000" font-family="sans-serif" font-size="20.8" lengthAdjust="spacingAndGlyphs" textLength="35.2" x="532.8" y="230.3813">call</text><polygon fill="#A80036" points="925.6,277.9688,941.6,284.3688,925.6,290.7688,932,284.3688" style="stroke: #A80036; stroke-width: 1.600000023841858;"/><line style="stroke: #A80036; stroke-width: 1.600000023841858;" x1="752.8" x2="935.2" y1="284.3688" y2="284.3688"/><text fill="#000000" font-family="sans-serif" font-size="20.8" lengthAdjust="spacingAndGlyphs" textLength="152" x="764" y="277.2781">ensure_created</text><line style="stroke: #A80036; stroke-width: 1.600000023841858;" x1="944.8" x2="1012" y1="331.7625" y2="331.7625"/><line style="stroke: #A80036; stroke-width: 1.600000023841858;" x1="1012" x2="1012" y1="331.7625" y2="352.5625"/><line style="stroke: #A80036; stroke-width: 1.600000023841858;" x1="946.4" x2="1012" y1="352.5625" y2="352.5625"/><polygon fill="#A80036" points="962.4,346.1625,946.4,352.5625,962.4,358.9625,956,352.5625" style="stroke: #A80036; stroke-width: 1.600000023841858;"/><text fill="#000000" font-family="sans-serif" font-size="20.8" lengthAdjust="spacingAndGlyphs" textLength="89.6" x="956" y="324.175">onCreate</text><polygon fill="#A80036" points="1135.2,392.5625,1151.2,398.9625,1135.2,405.3625,1141.6,398.9625" style="stroke: #A80036; stroke-width: 1.600000023841858;"/><line style="stroke: #A80036; stroke-width: 1.600000023841858;" x1="944.8" x2="1144.8" y1="398.9625" y2="398.9625"/><text fill="#000000" font-family="sans-serif" font-size="20.8" lengthAdjust="spacingAndGlyphs" textLength="72" x="956" y="391.8719">startup</text><polygon fill="#A80036" points="1402.4,439.4594,1418.4,445.8594,1402.4,452.2594,1408.8,445.8594" style="stroke: #A80036; stroke-width: 1.600000023841858;"/><line style="stroke: #A80036; stroke-width: 1.600000023841858;" x1="944.8" x2="1412" y1="445.8594" y2="445.8594"/><text fill="#000000" font-family="sans-serif" font-size="20.8" lengthAdjust="spacingAndGlyphs" textLength="131.2" x="956" y="438.7688">systemReady</text><polygon fill="#A80036" points="1704,518.8531,1720,525.2531,1704,531.6531,1710.4,525.2531" style="stroke: #A80036; stroke-width: 1.600000023841858;"/><line style="stroke: #A80036; stroke-width: 1.600000023841858;" x1="1421.6" x2="1713.6" y1="525.2531" y2="525.2531"/><text fill="#000000" font-family="sans-serif" font-size="20.8" lengthAdjust="spacingAndGlyphs" textLength="40" x="1432.8" y="518.1625">new</text><polygon fill="#FBFB77" filter="url(#fmfgxlr)" points="1731.2,467.1563,1731.2,555.1563,2040,555.1563,2040,483.1563,2024,467.1563,1731.2,467.1563" style="stroke: #A80036; stroke-width: 1.600000023841858;"/><line style="stroke: #A80036; stroke-width: 1.600000023841858;" x1="2024" x2="2024" y1="467.1563" y2="483.1563"/><line style="stroke: #A80036; stroke-width: 1.600000023841858;" x1="2040" x2="2024" y1="483.1563" y2="483.1563"/><text fill="#000000" font-family="sans-serif" font-size="20.8" lengthAdjust="spacingAndGlyphs" textLength="270.4" x="1740.8" y="495.2656">VPackageManagerService和</text><text fill="#000000" font-family="sans-serif" font-size="20.8" lengthAdjust="spacingAndGlyphs" textLength="275.2" x="1740.8" y="519.7625">VUserManagerService相结合</text><text fill="#000000" font-family="sans-serif" font-size="20.8" lengthAdjust="spacingAndGlyphs" textLength="150.4" x="1740.8" y="544.2594">实现multi-user</text><polygon fill="#A80036" points="2000,598.2469,2016,604.6469,2000,611.0469,2006.4,604.6469" style="stroke: #A80036; stroke-width: 1.600000023841858;"/><line style="stroke: #A80036; stroke-width: 1.600000023841858;" x1="944.8" x2="2009.6" y1="604.6469" y2="604.6469"/><text fill="#000000" font-family="sans-serif" font-size="20.8" lengthAdjust="spacingAndGlyphs" textLength="131.2" x="956" y="597.5563">systemReady</text><line style="stroke: #A80036; stroke-width: 1.600000023841858;" x1="2019.2" x2="2086.4" y1="652.0406" y2="652.0406"/><line style="stroke: #A80036; stroke-width: 1.600000023841858;" x1="2086.4" x2="2086.4" y1="652.0406" y2="672.8406"/><line style="stroke: #A80036; stroke-width: 1.600000023841858;" x1="2020.8" x2="2086.4" y1="672.8406" y2="672.8406"/><polygon fill="#A80036" points="2036.8,666.4406,2020.8,672.8406,2036.8,679.2406,2030.4,672.8406" style="stroke: #A80036; stroke-width: 1.600000023841858;"/><text fill="#000000" font-family="sans-serif" font-size="20.8" lengthAdjust="spacingAndGlyphs" textLength="89.6" x="2030.4" y="644.4531">onCreate</text><polygon fill="#A80036" points="2293.6,712.8406,2309.6,719.2406,2293.6,725.6406,2300,719.2406" style="stroke: #A80036; stroke-width: 1.600000023841858;"/><line style="stroke: #A80036; stroke-width: 1.600000023841858;" x1="944.8" x2="2303.2" y1="719.2406" y2="719.2406"/><text fill="#000000" font-family="sans-serif" font-size="20.8" lengthAdjust="spacingAndGlyphs" textLength="131.2" x="956" y="712.15">systemReady</text><polygon fill="#A80036" points="2531.2,759.7375,2547.2,766.1375,2531.2,772.5375,2537.6,766.1375" style="stroke: #A80036; stroke-width: 1.600000023841858;"/><line style="stroke: #A80036; stroke-width: 1.600000023841858;" x1="2312.8" x2="2540.8" y1="766.1375" y2="766.1375"/><text fill="#000000" font-family="sans-serif" font-size="20.8" lengthAdjust="spacingAndGlyphs" textLength="131.2" x="2324" y="759.0469">systemReady</text><polygon fill="#A80036" points="2709.6,826.8828,2725.6,833.2828,2709.6,839.6828,2716,833.2828" style="stroke: #A80036; stroke-width: 1.600000023841858;"/><line style="stroke: #A80036; stroke-width: 1.600000023841858;" x1="2312.8" x2="2719.2" y1="833.2828" y2="833.2828"/><text fill="#000000" font-family="sans-serif" font-size="20.8" lengthAdjust="spacingAndGlyphs" textLength="104" x="2324" y="826.1922">initUidList</text><polygon fill="#FBFB77" filter="url(#fmfgxlr)" points="2736,787.4344,2736,851.4344,3104,851.4344,3104,803.4344,3088,787.4344,2736,787.4344" style="stroke: #A80036; stroke-width: 1.600000023841858;"/><line style="stroke: #A80036; stroke-width: 1.600000023841858;" x1="3088" x2="3088" y1="787.4344" y2="803.4344"/><line style="stroke: #A80036; stroke-width: 1.600000023841858;" x1="3104" x2="3088" y1="803.4344" y2="803.4344"/><text fill="#000000" font-family="sans-serif" font-size="20.8" lengthAdjust="spacingAndGlyphs" textLength="334.4" x="2745.6" y="815.5438">加载uid文件，得出插件包名和uid的</text><text fill="#000000" font-family="sans-serif" font-size="20.8" lengthAdjust="spacingAndGlyphs" textLength="302.4" x="2745.6" y="840.0406">对应关系，以及下一个可用的uid</text><polygon fill="#A80036" points="2903.2,894.0281,2919.2,900.4281,2903.2,906.8281,2909.6,900.4281" style="stroke: #A80036; stroke-width: 1.600000023841858;"/><line style="stroke: #A80036; stroke-width: 1.600000023841858;" x1="944.8" x2="2912.8" y1="900.4281" y2="900.4281"/><text fill="#000000" font-family="sans-serif" font-size="20.8" lengthAdjust="spacingAndGlyphs" textLength="62.4" x="956" y="893.3375">attach</text><polygon fill="#A80036" points="3196.8,940.925,3212.8,947.325,3196.8,953.725,3203.2,947.325" style="stroke: #A80036; stroke-width: 1.600000023841858;"/><line style="stroke: #A80036; stroke-width: 1.600000023841858;" x1="944.8" x2="3206.4" y1="947.325" y2="947.325"/><text fill="#000000" font-family="sans-serif" font-size="20.8" lengthAdjust="spacingAndGlyphs" textLength="131.2" x="956" y="940.2344">systemReady</text><polygon fill="#A80036" points="2293.6,1020.3188,2309.6,1026.7188,2293.6,1033.1188,2300,1026.7188" style="stroke: #A80036; stroke-width: 1.600000023841858;"/><line style="stroke: #A80036; stroke-width: 1.600000023841858;" x1="944.8" x2="2303.2" y1="1026.7188" y2="1026.7188"/><text fill="#000000" font-family="sans-serif" font-size="20.8" lengthAdjust="spacingAndGlyphs" textLength="97.6" x="956" y="1019.6281">scanApps</text><polygon fill="#FBFB77" filter="url(#fmfgxlr)" points="2320,968.6219,2320,1056.6219,2702.4,1056.6219,2702.4,984.6219,2686.4,968.6219,2320,968.6219" style="stroke: #A80036; stroke-width: 1.600000023841858;"/><line style="stroke: #A80036; stroke-width: 1.600000023841858;" x1="2686.4" x2="2686.4" y1="968.6219" y2="984.6219"/><line style="stroke: #A80036; stroke-width: 1.600000023841858;" x1="2702.4" x2="2686.4" y1="984.6219" y2="984.6219"/><text fill="#000000" font-family="sans-serif" font-size="20.8" lengthAdjust="spacingAndGlyphs" textLength="313.6" x="2329.6" y="996.7313">加载packages.ini文件，得出所有</text><text fill="#000000" font-family="sans-serif" font-size="20.8" lengthAdjust="spacingAndGlyphs" textLength="348.8" x="2329.6" y="1021.2281">安装过的插件的详细信息（如apk路径</text><text fill="#000000" font-family="sans-serif" font-size="20.8" lengthAdjust="spacingAndGlyphs" textLength="296" x="2329.6" y="1045.725">、lib路径、包名、是否外部等）</text><polygon fill="#A80036" points="3536.8001,1099.7125,3552.8001,1106.1125,3536.8001,1112.5125,3543.2001,1106.1125" style="stroke: #A80036; stroke-width: 1.600000023841858;"/><line style="stroke: #A80036; stroke-width: 1.600000023841858;" x1="944.8" x2="3546.4001" y1="1106.1125" y2="1106.1125"/><text fill="#000000" font-family="sans-serif" font-size="20.8" lengthAdjust="spacingAndGlyphs" textLength="131.2" x="956" y="1099.0219">systemReady</text><line style="stroke: #A80036; stroke-width: 1.600000023841858;" x1="3556.0001" x2="3623.2001" y1="1153.5063" y2="1153.5063"/><line style="stroke: #A80036; stroke-width: 1.600000023841858;" x1="3623.2001" x2="3623.2001" y1="1153.5063" y2="1174.3063"/><line style="stroke: #A80036; stroke-width: 1.600000023841858;" x1="3557.6001" x2="3623.2001" y1="1174.3063" y2="1174.3063"/><polygon fill="#A80036" points="3573.6001,1167.9063,3557.6001,1174.3063,3573.6001,1180.7063,3567.2001,1174.3063" style="stroke: #A80036; stroke-width: 1.600000023841858;"/><text fill="#000000" font-family="sans-serif" font-size="20.8" lengthAdjust="spacingAndGlyphs" textLength="164.8" x="3567.2001" y="1145.9188">readAllAccounts</text></g></svg>