<?xml version="1.0" encoding="UTF-8" standalone="no"?><svg xmlns="http://www.w3.org/2000/svg" xmlns:xlink="http://www.w3.org/1999/xlink" contentScriptType="application/ecmascript" contentStyleType="text/css" height="790px" preserveAspectRatio="none" style="width:2333px;height:790px;" version="1.1" viewBox="0 0 2333 790" width="2333px" zoomAndPan="magnify"><defs><filter height="300%" id="fy4vhq6" width="300%" x="-1" y="-1"><feGaussianBlur result="blurOut" stdDeviation="2.0"/><feColorMatrix in="blurOut" result="blurOut2" type="matrix" values="0 0 0 0 0 0 0 0 0 0 0 0 0 0 0 0 0 0 .4 0"/><feOffset dx="4.0" dy="4.0" in="blurOut2" result="blurOut3"/><feBlend in="SourceGraphic" in2="blurOut3" mode="normal"/></filter></defs><g><line style="stroke: #A80036; stroke-width: 1.0; stroke-dasharray: 5.0,5.0;" x1="64" x2="64" y1="38.4883" y2="751.6309"/><line style="stroke: #A80036; stroke-width: 1.0; stroke-dasharray: 5.0,5.0;" x1="178" x2="178" y1="38.4883" y2="751.6309"/><line style="stroke: #A80036; stroke-width: 1.0; stroke-dasharray: 5.0,5.0;" x1="326" x2="326" y1="38.4883" y2="751.6309"/><line style="stroke: #A80036; stroke-width: 1.0; stroke-dasharray: 5.0,5.0;" x1="470" x2="470" y1="38.4883" y2="751.6309"/><line style="stroke: #A80036; stroke-width: 1.0; stroke-dasharray: 5.0,5.0;" x1="590" x2="590" y1="38.4883" y2="751.6309"/><line style="stroke: #A80036; stroke-width: 1.0; stroke-dasharray: 5.0,5.0;" x1="721" x2="721" y1="38.4883" y2="751.6309"/><line style="stroke: #A80036; stroke-width: 1.0; stroke-dasharray: 5.0,5.0;" x1="888" x2="888" y1="38.4883" y2="751.6309"/><line style="stroke: #A80036; stroke-width: 1.0; stroke-dasharray: 5.0,5.0;" x1="1077" x2="1077" y1="38.4883" y2="751.6309"/><line style="stroke: #A80036; stroke-width: 1.0; stroke-dasharray: 5.0,5.0;" x1="1262" x2="1262" y1="38.4883" y2="751.6309"/><line style="stroke: #A80036; stroke-width: 1.0; stroke-dasharray: 5.0,5.0;" x1="1445" x2="1445" y1="38.4883" y2="751.6309"/><line style="stroke: #A80036; stroke-width: 1.0; stroke-dasharray: 5.0,5.0;" x1="1594" x2="1594" y1="38.4883" y2="751.6309"/><line style="stroke: #A80036; stroke-width: 1.0; stroke-dasharray: 5.0,5.0;" x1="1705" x2="1705" y1="38.4883" y2="751.6309"/><line style="stroke: #A80036; stroke-width: 1.0; stroke-dasharray: 5.0,5.0;" x1="1826" x2="1826" y1="38.4883" y2="751.6309"/><line style="stroke: #A80036; stroke-width: 1.0; stroke-dasharray: 5.0,5.0;" x1="2010" x2="2010" y1="38.4883" y2="751.6309"/><line style="stroke: #A80036; stroke-width: 1.0; stroke-dasharray: 5.0,5.0;" x1="2222" x2="2222" y1="38.4883" y2="751.6309"/><rect fill="#FEFECE" filter="url(#fy4vhq6)" height="30.4883" style="stroke: #A80036; stroke-width: 1.5;" width="108" x="8" y="3"/><text fill="#000000" font-family="sans-serif" font-size="14" lengthAdjust="spacingAndGlyphs" textLength="94" x="15" y="23.5352">SplashActivity</text><rect fill="#FEFECE" filter="url(#fy4vhq6)" height="30.4883" style="stroke: #A80036; stroke-width: 1.5;" width="108" x="8" y="750.6309"/><text fill="#000000" font-family="sans-serif" font-size="14" lengthAdjust="spacingAndGlyphs" textLength="94" x="15" y="771.166">SplashActivity</text><rect fill="#FEFECE" filter="url(#fy4vhq6)" height="30.4883" style="stroke: #A80036; stroke-width: 1.5;" width="92" x="130" y="3"/><text fill="#000000" font-family="sans-serif" font-size="14" lengthAdjust="spacingAndGlyphs" textLength="78" x="137" y="23.5352">VirtualCore</text><rect fill="#FEFECE" filter="url(#fy4vhq6)" height="30.4883" style="stroke: #A80036; stroke-width: 1.5;" width="92" x="130" y="750.6309"/><text fill="#000000" font-family="sans-serif" font-size="14" lengthAdjust="spacingAndGlyphs" textLength="78" x="137" y="771.166">VirtualCore</text><rect fill="#FEFECE" filter="url(#fy4vhq6)" height="30.4883" style="stroke: #A80036; stroke-width: 1.5;" width="164" x="242" y="3"/><text fill="#000000" font-family="sans-serif" font-size="14" lengthAdjust="spacingAndGlyphs" textLength="150" x="249" y="23.5352">ServiceManagerNative</text><rect fill="#FEFECE" filter="url(#fy4vhq6)" height="30.4883" style="stroke: #A80036; stroke-width: 1.5;" width="164" x="242" y="750.6309"/><text fill="#000000" font-family="sans-serif" font-size="14" lengthAdjust="spacingAndGlyphs" textLength="150" x="249" y="771.166">ServiceManagerNative</text><rect fill="#FEFECE" filter="url(#fy4vhq6)" height="30.4883" style="stroke: #A80036; stroke-width: 1.5;" width="97" x="420" y="3"/><text fill="#000000" font-family="sans-serif" font-size="14" lengthAdjust="spacingAndGlyphs" textLength="83" x="427" y="23.5352">ProviderCall</text><rect fill="#FEFECE" filter="url(#fy4vhq6)" height="30.4883" style="stroke: #A80036; stroke-width: 1.5;" width="97" x="420" y="750.6309"/><text fill="#000000" font-family="sans-serif" font-size="14" lengthAdjust="spacingAndGlyphs" textLength="83" x="427" y="771.166">ProviderCall</text><rect fill="#FEFECE" filter="url(#fy4vhq6)" height="30.4883" style="stroke: #A80036; stroke-width: 1.5;" width="115" x="531" y="3"/><text fill="#000000" font-family="sans-serif" font-size="14" lengthAdjust="spacingAndGlyphs" textLength="101" x="538" y="23.5352">BinderProvider</text><rect fill="#FEFECE" filter="url(#fy4vhq6)" height="30.4883" style="stroke: #A80036; stroke-width: 1.5;" width="115" x="531" y="750.6309"/><text fill="#000000" font-family="sans-serif" font-size="14" lengthAdjust="spacingAndGlyphs" textLength="101" x="538" y="771.166">BinderProvider</text><rect fill="#FEFECE" filter="url(#fy4vhq6)" height="30.4883" style="stroke: #A80036; stroke-width: 1.5;" width="119" x="660" y="3"/><text fill="#000000" font-family="sans-serif" font-size="14" lengthAdjust="spacingAndGlyphs" textLength="105" x="667" y="23.5352">DaemonService</text><rect fill="#FEFECE" filter="url(#fy4vhq6)" height="30.4883" style="stroke: #A80036; stroke-width: 1.5;" width="119" x="660" y="750.6309"/><text fill="#000000" font-family="sans-serif" font-size="14" lengthAdjust="spacingAndGlyphs" textLength="105" x="667" y="771.166">DaemonService</text><rect fill="#FEFECE" filter="url(#fy4vhq6)" height="30.4883" style="stroke: #A80036; stroke-width: 1.5;" width="187" x="793" y="3"/><text fill="#000000" font-family="sans-serif" font-size="14" lengthAdjust="spacingAndGlyphs" textLength="173" x="800" y="23.5352">VPackageManagerService</text><rect fill="#FEFECE" filter="url(#fy4vhq6)" height="30.4883" style="stroke: #A80036; stroke-width: 1.5;" width="187" x="793" y="750.6309"/><text fill="#000000" font-family="sans-serif" font-size="14" lengthAdjust="spacingAndGlyphs" textLength="173" x="800" y="771.166">VPackageManagerService</text><rect fill="#FEFECE" filter="url(#fy4vhq6)" height="30.4883" style="stroke: #A80036; stroke-width: 1.5;" width="162" x="994" y="3"/><text fill="#000000" font-family="sans-serif" font-size="14" lengthAdjust="spacingAndGlyphs" textLength="148" x="1001" y="23.5352">VUserManagerService</text><rect fill="#FEFECE" filter="url(#fy4vhq6)" height="30.4883" style="stroke: #A80036; stroke-width: 1.5;" width="162" x="994" y="750.6309"/><text fill="#000000" font-family="sans-serif" font-size="14" lengthAdjust="spacingAndGlyphs" textLength="148" x="1001" y="771.166">VUserManagerService</text><rect fill="#FEFECE" filter="url(#fy4vhq6)" height="30.4883" style="stroke: #A80036; stroke-width: 1.5;" width="180" x="1170" y="3"/><text fill="#000000" font-family="sans-serif" font-size="14" lengthAdjust="spacingAndGlyphs" textLength="166" x="1177" y="23.5352">VActivityManagerService</text><rect fill="#FEFECE" filter="url(#fy4vhq6)" height="30.4883" style="stroke: #A80036; stroke-width: 1.5;" width="180" x="1170" y="750.6309"/><text fill="#000000" font-family="sans-serif" font-size="14" lengthAdjust="spacingAndGlyphs" textLength="166" x="1177" y="771.166">VActivityManagerService</text><rect fill="#FEFECE" filter="url(#fy4vhq6)" height="30.4883" style="stroke: #A80036; stroke-width: 1.5;" width="159" x="1364" y="3"/><text fill="#000000" font-family="sans-serif" font-size="14" lengthAdjust="spacingAndGlyphs" textLength="145" x="1371" y="23.5352">VAppManagerService</text><rect fill="#FEFECE" filter="url(#fy4vhq6)" height="30.4883" style="stroke: #A80036; stroke-width: 1.5;" width="159" x="1364" y="750.6309"/><text fill="#000000" font-family="sans-serif" font-size="14" lengthAdjust="spacingAndGlyphs" textLength="145" x="1371" y="771.166">VAppManagerService</text><rect fill="#FEFECE" filter="url(#fy4vhq6)" height="30.4883" style="stroke: #A80036; stroke-width: 1.5;" width="110" x="1537" y="3"/><text fill="#000000" font-family="sans-serif" font-size="14" lengthAdjust="spacingAndGlyphs" textLength="96" x="1544" y="23.5352">VEnvironment</text><rect fill="#FEFECE" filter="url(#fy4vhq6)" height="30.4883" style="stroke: #A80036; stroke-width: 1.5;" width="110" x="1537" y="750.6309"/><text fill="#000000" font-family="sans-serif" font-size="14" lengthAdjust="spacingAndGlyphs" textLength="96" x="1544" y="771.166">VEnvironment</text><rect fill="#FEFECE" filter="url(#fy4vhq6)" height="30.4883" style="stroke: #A80036; stroke-width: 1.5;" width="85" x="1661" y="3"/><text fill="#000000" font-family="sans-serif" font-size="14" lengthAdjust="spacingAndGlyphs" textLength="71" x="1668" y="23.5352">UidSystem</text><rect fill="#FEFECE" filter="url(#fy4vhq6)" height="30.4883" style="stroke: #A80036; stroke-width: 1.5;" width="85" x="1661" y="750.6309"/><text fill="#000000" font-family="sans-serif" font-size="14" lengthAdjust="spacingAndGlyphs" textLength="71" x="1668" y="771.166">UidSystem</text><rect fill="#FEFECE" filter="url(#fy4vhq6)" height="30.4883" style="stroke: #A80036; stroke-width: 1.5;" width="129" x="1760" y="3"/><text fill="#000000" font-family="sans-serif" font-size="14" lengthAdjust="spacingAndGlyphs" textLength="115" x="1767" y="23.5352">BroadcastSystem</text><rect fill="#FEFECE" filter="url(#fy4vhq6)" height="30.4883" style="stroke: #A80036; stroke-width: 1.5;" width="129" x="1760" y="750.6309"/><text fill="#000000" font-family="sans-serif" font-size="14" lengthAdjust="spacingAndGlyphs" textLength="115" x="1767" y="771.166">BroadcastSystem</text><rect fill="#FEFECE" filter="url(#fy4vhq6)" height="30.4883" style="stroke: #A80036; stroke-width: 1.5;" width="210" x="1903" y="3"/><text fill="#000000" font-family="sans-serif" font-size="14" lengthAdjust="spacingAndGlyphs" textLength="196" x="1910" y="23.5352">VNotificationManagerService</text><rect fill="#FEFECE" filter="url(#fy4vhq6)" height="30.4883" style="stroke: #A80036; stroke-width: 1.5;" width="210" x="1903" y="750.6309"/><text fill="#000000" font-family="sans-serif" font-size="14" lengthAdjust="spacingAndGlyphs" textLength="196" x="1910" y="771.166">VNotificationManagerService</text><rect fill="#FEFECE" filter="url(#fy4vhq6)" height="30.4883" style="stroke: #A80036; stroke-width: 1.5;" width="187" x="2127" y="3"/><text fill="#000000" font-family="sans-serif" font-size="14" lengthAdjust="spacingAndGlyphs" textLength="173" x="2134" y="23.5352">VAccountManagerService</text><rect fill="#FEFECE" filter="url(#fy4vhq6)" height="30.4883" style="stroke: #A80036; stroke-width: 1.5;" width="187" x="2127" y="750.6309"/><text fill="#000000" font-family="sans-serif" font-size="14" lengthAdjust="spacingAndGlyphs" textLength="173" x="2134" y="771.166">VAccountManagerService</text><polygon fill="#A80036" points="166,65.4883,176,69.4883,166,73.4883,170,69.4883" style="stroke: #A80036; stroke-width: 1.0;"/><line style="stroke: #A80036; stroke-width: 1.0;" x1="64" x2="172" y1="69.4883" y2="69.4883"/><text fill="#000000" font-family="sans-serif" font-size="13" lengthAdjust="spacingAndGlyphs" textLength="88" x="71" y="65.0566">waitForEngine</text><polygon fill="#A80036" points="314,94.7988,324,98.7988,314,102.7988,318,98.7988" style="stroke: #A80036; stroke-width: 1.0;"/><line style="stroke: #A80036; stroke-width: 1.0;" x1="178" x2="320" y1="98.7988" y2="98.7988"/><text fill="#000000" font-family="sans-serif" font-size="13" lengthAdjust="spacingAndGlyphs" textLength="124" x="185" y="94.3672">ensureServerStarted</text><polygon fill="#A80036" points="458.5,124.1094,468.5,128.1094,458.5,132.1094,462.5,128.1094" style="stroke: #A80036; stroke-width: 1.0;"/><line style="stroke: #A80036; stroke-width: 1.0;" x1="326" x2="464.5" y1="128.1094" y2="128.1094"/><text fill="#000000" font-family="sans-serif" font-size="13" lengthAdjust="spacingAndGlyphs" textLength="22" x="333" y="123.6777">call</text><polygon fill="#A80036" points="578.5,158.4199,588.5,162.4199,578.5,166.4199,582.5,162.4199" style="stroke: #A80036; stroke-width: 1.0;"/><line style="stroke: #A80036; stroke-width: 1.0;" x1="470.5" x2="584.5" y1="162.4199" y2="162.4199"/><text fill="#000000" font-family="sans-serif" font-size="13" lengthAdjust="spacingAndGlyphs" textLength="95" x="477.5" y="157.9883">ensure_created</text><polygon fill="#FBFB77" filter="url(#fy4vhq6)" points="595,141.4199,595,166.4199,757,166.4199,757,151.4199,747,141.4199,595,141.4199" style="stroke: #A80036; stroke-width: 1.0;"/><line style="stroke: #A80036; stroke-width: 1.0;" x1="747" x2="747" y1="141.4199" y2="151.4199"/><line style="stroke: #A80036; stroke-width: 1.0;" x1="757" x2="747" y1="151.4199" y2="151.4199"/><text fill="#000000" font-family="sans-serif" font-size="13" lengthAdjust="spacingAndGlyphs" textLength="141" x="601" y="158.9883">BinderProvider在:x进程</text><line style="stroke: #A80036; stroke-width: 1.0;" x1="590.5" x2="632.5" y1="197.041" y2="197.041"/><line style="stroke: #A80036; stroke-width: 1.0;" x1="632.5" x2="632.5" y1="197.041" y2="210.041"/><line style="stroke: #A80036; stroke-width: 1.0;" x1="591.5" x2="632.5" y1="210.041" y2="210.041"/><polygon fill="#A80036" points="601.5,206.041,591.5,210.041,601.5,214.041,597.5,210.041" style="stroke: #A80036; stroke-width: 1.0;"/><text fill="#000000" font-family="sans-serif" font-size="13" lengthAdjust="spacingAndGlyphs" textLength="56" x="597.5" y="192.2988">onCreate</text><polygon fill="#A80036" points="709.5,240.041,719.5,244.041,709.5,248.041,713.5,244.041" style="stroke: #A80036; stroke-width: 1.0;"/><line style="stroke: #A80036; stroke-width: 1.0;" x1="590.5" x2="715.5" y1="244.041" y2="244.041"/><text fill="#000000" font-family="sans-serif" font-size="13" lengthAdjust="spacingAndGlyphs" textLength="45" x="597.5" y="239.6094">startup</text><polygon fill="#FBFB77" filter="url(#fy4vhq6)" points="726,223.041,726,248.041,894,248.041,894,233.041,884,223.041,726,223.041" style="stroke: #A80036; stroke-width: 1.0;"/><line style="stroke: #A80036; stroke-width: 1.0;" x1="884" x2="884" y1="223.041" y2="233.041"/><line style="stroke: #A80036; stroke-width: 1.0;" x1="894" x2="884" y1="233.041" y2="233.041"/><text fill="#000000" font-family="sans-serif" font-size="13" lengthAdjust="spacingAndGlyphs" textLength="147" x="732" y="240.6094">DaemonService在:x进程</text><polygon fill="#A80036" points="876.5,274.3516,886.5,278.3516,876.5,282.3516,880.5,278.3516" style="stroke: #A80036; stroke-width: 1.0;"/><line style="stroke: #A80036; stroke-width: 1.0;" x1="590.5" x2="882.5" y1="278.3516" y2="278.3516"/><text fill="#000000" font-family="sans-serif" font-size="13" lengthAdjust="spacingAndGlyphs" textLength="82" x="597.5" y="273.9199">systemReady</text><polygon fill="#A80036" points="1065,323.9727,1075,327.9727,1065,331.9727,1069,327.9727" style="stroke: #A80036; stroke-width: 1.0;"/><line style="stroke: #A80036; stroke-width: 1.0;" x1="888.5" x2="1071" y1="327.9727" y2="327.9727"/><text fill="#000000" font-family="sans-serif" font-size="13" lengthAdjust="spacingAndGlyphs" textLength="25" x="895.5" y="323.541">new</text><polygon fill="#FBFB77" filter="url(#fy4vhq6)" points="1082,291.6621,1082,346.6621,1275,346.6621,1275,301.6621,1265,291.6621,1082,291.6621" style="stroke: #A80036; stroke-width: 1.0;"/><line style="stroke: #A80036; stroke-width: 1.0;" x1="1265" x2="1265" y1="291.6621" y2="301.6621"/><line style="stroke: #A80036; stroke-width: 1.0;" x1="1275" x2="1265" y1="301.6621" y2="301.6621"/><text fill="#000000" font-family="sans-serif" font-size="13" lengthAdjust="spacingAndGlyphs" textLength="169" x="1088" y="309.2305">VPackageManagerService和</text><text fill="#000000" font-family="sans-serif" font-size="13" lengthAdjust="spacingAndGlyphs" textLength="172" x="1088" y="324.541">VUserManagerService相结合</text><text fill="#000000" font-family="sans-serif" font-size="13" lengthAdjust="spacingAndGlyphs" textLength="94" x="1088" y="339.8516">实现multi-user</text><polygon fill="#A80036" points="1250,373.5938,1260,377.5938,1250,381.5938,1254,377.5938" style="stroke: #A80036; stroke-width: 1.0;"/><line style="stroke: #A80036; stroke-width: 1.0;" x1="590.5" x2="1256" y1="377.5938" y2="377.5938"/><text fill="#000000" font-family="sans-serif" font-size="13" lengthAdjust="spacingAndGlyphs" textLength="82" x="597.5" y="373.1621">systemReady</text><line style="stroke: #A80036; stroke-width: 1.0;" x1="1262" x2="1304" y1="407.2148" y2="407.2148"/><line style="stroke: #A80036; stroke-width: 1.0;" x1="1304" x2="1304" y1="407.2148" y2="420.2148"/><line style="stroke: #A80036; stroke-width: 1.0;" x1="1263" x2="1304" y1="420.2148" y2="420.2148"/><polygon fill="#A80036" points="1273,416.2148,1263,420.2148,1273,424.2148,1269,420.2148" style="stroke: #A80036; stroke-width: 1.0;"/><text fill="#000000" font-family="sans-serif" font-size="13" lengthAdjust="spacingAndGlyphs" textLength="56" x="1269" y="402.4727">onCreate</text><polygon fill="#A80036" points="1433.5,445.2148,1443.5,449.2148,1433.5,453.2148,1437.5,449.2148" style="stroke: #A80036; stroke-width: 1.0;"/><line style="stroke: #A80036; stroke-width: 1.0;" x1="590.5" x2="1439.5" y1="449.2148" y2="449.2148"/><text fill="#000000" font-family="sans-serif" font-size="13" lengthAdjust="spacingAndGlyphs" textLength="82" x="597.5" y="444.7832">systemReady</text><polygon fill="#A80036" points="1582,474.5254,1592,478.5254,1582,482.5254,1586,478.5254" style="stroke: #A80036; stroke-width: 1.0;"/><line style="stroke: #A80036; stroke-width: 1.0;" x1="1445.5" x2="1588" y1="478.5254" y2="478.5254"/><text fill="#000000" font-family="sans-serif" font-size="13" lengthAdjust="spacingAndGlyphs" textLength="82" x="1452.5" y="474.0938">systemReady</text><polygon fill="#A80036" points="1693.5,516.4912,1703.5,520.4912,1693.5,524.4912,1697.5,520.4912" style="stroke: #A80036; stroke-width: 1.0;"/><line style="stroke: #A80036; stroke-width: 1.0;" x1="1445.5" x2="1699.5" y1="520.4912" y2="520.4912"/><text fill="#000000" font-family="sans-serif" font-size="13" lengthAdjust="spacingAndGlyphs" textLength="65" x="1452.5" y="516.0596">initUidList</text><polygon fill="#FBFB77" filter="url(#fy4vhq6)" points="1710,491.8359,1710,531.8359,1940,531.8359,1940,501.8359,1930,491.8359,1710,491.8359" style="stroke: #A80036; stroke-width: 1.0;"/><line style="stroke: #A80036; stroke-width: 1.0;" x1="1930" x2="1930" y1="491.8359" y2="501.8359"/><line style="stroke: #A80036; stroke-width: 1.0;" x1="1940" x2="1930" y1="501.8359" y2="501.8359"/><text fill="#000000" font-family="sans-serif" font-size="13" lengthAdjust="spacingAndGlyphs" textLength="209" x="1716" y="509.4043">加载uid文件，得出插件包名和uid的</text><text fill="#000000" font-family="sans-serif" font-size="13" lengthAdjust="spacingAndGlyphs" textLength="189" x="1716" y="524.7148">对应关系，以及下一个可用的uid</text><polygon fill="#A80036" points="1814.5,558.457,1824.5,562.457,1814.5,566.457,1818.5,562.457" style="stroke: #A80036; stroke-width: 1.0;"/><line style="stroke: #A80036; stroke-width: 1.0;" x1="590.5" x2="1820.5" y1="562.457" y2="562.457"/><text fill="#000000" font-family="sans-serif" font-size="13" lengthAdjust="spacingAndGlyphs" textLength="39" x="597.5" y="558.0254">attach</text><polygon fill="#A80036" points="1998,587.7676,2008,591.7676,1998,595.7676,2002,591.7676" style="stroke: #A80036; stroke-width: 1.0;"/><line style="stroke: #A80036; stroke-width: 1.0;" x1="590.5" x2="2004" y1="591.7676" y2="591.7676"/><text fill="#000000" font-family="sans-serif" font-size="13" lengthAdjust="spacingAndGlyphs" textLength="82" x="597.5" y="587.3359">systemReady</text><polygon fill="#A80036" points="1433.5,637.3887,1443.5,641.3887,1433.5,645.3887,1437.5,641.3887" style="stroke: #A80036; stroke-width: 1.0;"/><line style="stroke: #A80036; stroke-width: 1.0;" x1="590.5" x2="1439.5" y1="641.3887" y2="641.3887"/><text fill="#000000" font-family="sans-serif" font-size="13" lengthAdjust="spacingAndGlyphs" textLength="61" x="597.5" y="636.957">scanApps</text><polygon fill="#FBFB77" filter="url(#fy4vhq6)" points="1450,605.0781,1450,660.0781,1689,660.0781,1689,615.0781,1679,605.0781,1450,605.0781" style="stroke: #A80036; stroke-width: 1.0;"/><line style="stroke: #A80036; stroke-width: 1.0;" x1="1679" x2="1679" y1="605.0781" y2="615.0781"/><line style="stroke: #A80036; stroke-width: 1.0;" x1="1689" x2="1679" y1="615.0781" y2="615.0781"/><text fill="#000000" font-family="sans-serif" font-size="13" lengthAdjust="spacingAndGlyphs" textLength="196" x="1456" y="622.6465">加载packages.ini文件，得出所有</text><text fill="#000000" font-family="sans-serif" font-size="13" lengthAdjust="spacingAndGlyphs" textLength="218" x="1456" y="637.957">安装过的插件的详细信息（如apk路径</text><text fill="#000000" font-family="sans-serif" font-size="13" lengthAdjust="spacingAndGlyphs" textLength="185" x="1456" y="653.2676">、lib路径、包名、是否外部等）</text><polygon fill="#A80036" points="2210.5,687.0098,2220.5,691.0098,2210.5,695.0098,2214.5,691.0098" style="stroke: #A80036; stroke-width: 1.0;"/><line style="stroke: #A80036; stroke-width: 1.0;" x1="590.5" x2="2216.5" y1="691.0098" y2="691.0098"/><text fill="#000000" font-family="sans-serif" font-size="13" lengthAdjust="spacingAndGlyphs" textLength="82" x="597.5" y="686.5781">systemReady</text><line style="stroke: #A80036; stroke-width: 1.0;" x1="2222.5" x2="2264.5" y1="720.6309" y2="720.6309"/><line style="stroke: #A80036; stroke-width: 1.0;" x1="2264.5" x2="2264.5" y1="720.6309" y2="733.6309"/><line style="stroke: #A80036; stroke-width: 1.0;" x1="2223.5" x2="2264.5" y1="733.6309" y2="733.6309"/><polygon fill="#A80036" points="2233.5,729.6309,2223.5,733.6309,2233.5,737.6309,2229.5,733.6309" style="stroke: #A80036; stroke-width: 1.0;"/><text fill="#000000" font-family="sans-serif" font-size="13" lengthAdjust="spacingAndGlyphs" textLength="103" x="2229.5" y="715.8887">readAllAccounts</text></g></svg>